<?xml version="1.0" ?>

<!-- Uploaded to: SVG Repo, www.svgrepo.com, Generator: SVG Repo Mixer Tools -->
<svg width="800px" height="800px" viewBox="0 0 32 32" xmlns="http://www.w3.org/2000/svg">
    <title>Upload File</title>
    <g data-name="Layer 7" id="Layer_7">
        <!-- file border -->
        <path d="M21,30H11a5,5,0,0,1-5-5V7a5,5,0,0,1,5-5h8a1,1,0,0,1,.71.29l6,6A1,1,0,0,1,26,9V25A5,5,0,0,1,21,30ZM11,4A3,3,0,0,0,8,7V25a3,3,0,0,0,3,3H21a3,3,0,0,0,3-3V9.41L18.59,4Z" fill="#727272"/>
        <!-- arrow -->
        <path transform="rotate(180 16 17)" d="M16.71,11.29a1,1,0,0,0-1.42,0l-4,4a1,1,0,0,0-.21,1.09A1,1,0,0,0,12,17h1v3a1,1,0,0,0,1,1h4a1,1,0,0,0,1-1V17h1a1,1,0,0,0,.92-.62,1,1,0,0,0-.21-1.09Z" fill="#1478B4"/>
        <!-- file fold -->
        <path d="M25.71,8.29l-6-6a1,1,0,0,0-1.09-.21A1,1,0,0,0,18,3V8a2,2,0,0,0,2,2h5a1,1,0,0,0,.92-.62A1,1,0,0,0,25.71,8.29Z" fill="#727272"/>
    </g>
</svg>